# xmcd CD database file
#
# Track frame offsets:
#	183
#	10273
#	21623
#	37530
#	73295
#	97845
#	119643
#	149305
#	167145
#	187660
#
# Disc length: 2718 seconds
#
# Revision: 0
# Processed by: cddbd v1.5.1PL0 Copyright (c) Steve Scherf et al.
# Submitted via: CDex 1.51
#
DISCID=800a9c0a
DTITLE=Bud SHANK - The Fabulous Bud Shank Quartet
DYEAR=1956
DGENRE=Jazz
TTITLE0=Crazy Rhythm
TTITLE1=Lover Man
TTITLE2=The Lamp Is Low
TTITLE3=A Tribute To an African Pennywhistle
TTITLE4=I'll Remember April
TTITLE5=Charity Rag
TTITLE6=Squeeze Me
TTITLE7=My Funny Valentine
TTITLE8=Misty Eyes
TTITLE9=Waltzin' The Blues Away
EXTD=YEAR: 1956
EXTT0=
EXTT1=
EXTT2=
EXTT3=
EXTT4=
EXTT5=
EXTT6=
EXTT7=
EXTT8=
EXTT9=
PLAYORDER=
